<?xml version="1.0" encoding="UTF-8" standalone="no"?>
<svg width="100px" height="100px" viewBox="0 0 100 100" version="1.1" xmlns="http://www.w3.org/2000/svg" xmlns:xlink="http://www.w3.org/1999/xlink">
    <!-- Generator: Sketch 3.7 (28169) - http://www.bohemiancoding.com/sketch -->
    <title>default-avatar</title>
    <desc>Created with Sketch.</desc>
    <defs>
        <ellipse id="path-1" cx="50" cy="49.8334383" rx="49.9480132" ry="49.7299188"></ellipse>
        <path d="M35.678289,45.2010705 C35.2376577,46.3689644 35,47.6094491 35,48.8937493 L35,63.456381 C35,70.3008925 41.75,75.9009475 50,75.9009475 C58.25,75.9009475 65,70.3008925 65,63.456381 L65,48.8937493 C65,47.6117591 64.7631964,46.3734269 64.3240866,45.2073731 C60.5098522,45.1852229 57.7237129,44.8527227 54.8159555,41.9359594 L53.3514337,40 C53.3514337,40 51.7352764,41.7749467 50.8624871,42.4626669 C46.2722141,45.5872633 41.8788457,45.2010705 39.4600261,45.2010705 L35.678289,45.2010705 Z" id="path-3"></path>
        <mask id="mask-4" maskContentUnits="userSpaceOnUse" maskUnits="objectBoundingBox" x="0" y="0" width="30" height="35.9009475" fill="white">
            <use xlink:href="#path-3"></use>
        </mask>
    </defs>
    <g id="Apr-04" stroke="none" stroke-width="1" fill="none" fill-rule="evenodd">
        <g id="default-avatar">
            <mask id="mask-2" fill="white">
                <use xlink:href="#path-1"></use>
            </mask>
            <use id="Background" fill="#DBE2E8" xlink:href="#path-1"></use>
            <path d="M59.6319067,66.7739777 C57.2836149,68.2042115 54.5316152,69.0270588 51.5892862,69.0270588 C48.0365016,69.0270588 44.7612155,67.8273535 42.1390786,65.807259 C40.3822226,67.7837468 37.8325747,69.0270588 34.9953418,69.0270588 C29.6954663,69.0270588 25.3990684,64.6887396 25.3990684,59.3371517 C25.3990684,57.6753192 25.8133672,56.1111955 26.5433607,54.7443469 C24.3811911,52.9676087 23,50.2590593 23,47.2247678 C23,43.2237336 25.4015061,39.7890741 28.8284182,38.3103164 C28.8083579,38.054499 28.7981367,37.7958851 28.7981367,37.5348607 C28.7981367,32.1832728 33.0945347,27.8449536 38.3944102,27.8449536 C39.5769517,27.8449536 40.7095347,28.0609382 41.7555801,28.4559715 C43.3118737,25.226029 46.5933664,23 50.389752,23 C53.8008619,23 56.7962835,24.7971386 58.4980637,27.5048962 C59.5791526,27.0788054 60.7555434,26.8449536 61.9860255,26.8449536 C67.285901,26.8449536 71.582299,31.1832728 71.582299,36.5348607 C71.582299,37.0722053 71.5389833,37.5993343 71.4556854,38.1128817 C75.1443068,39.4638837 77.7795041,43.0335814 77.7795041,47.2247678 C77.7795041,50.2590593 76.398313,52.9676087 74.2361434,54.7443469 C74.9661369,56.1111955 75.3804357,57.6753192 75.3804357,59.3371517 C75.3804357,64.6887396 71.0840377,69.0270588 65.7841623,69.0270588 C63.4429774,69.0270588 61.2976084,68.1804914 59.6319067,66.7739777 Z" id="hair" stroke="#7D97AD" stroke-width="2" fill="#DBE2E8" mask="url(#mask-2)"></path>
            <g id="face" mask="url(#mask-2)" stroke-width="4" stroke="#7D97AD" fill="#DBE2E8">
                <use mask="url(#mask-4)" xlink:href="#path-3"></use>
            </g>
            <path d="M50.329851,65.6671234 C46.7906446,65.6671234 46.5746788,63 45.8844565,63 C45.4486179,63 44.8599301,63.6105427 45.0300345,64.22954 C45.6821016,66.5980349 47.8048632,68.3342468 50.329851,68.3342468 C52.8542481,68.3342468 54.9776004,66.5980349 55.6290768,64.22954 C55.7997719,63.6105427 55.2280707,63 54.7897358,63 C54.2107524,63 53.9238108,65.6671234 50.329851,65.6671234 Z" id="mouth" fill="#7D97AD" mask="url(#mask-2)"></path>
            <g id="Eyes" mask="url(#mask-2)" fill="#7D97AD">
                <g transform="translate(42.000000, 54.000000)">
                    <path d="M3.17086353,0.0742414861 C4.38552517,0.0742414861 5.37000953,1.05542149 5.37000953,2.26600619 C5.37000953,3.4765909 4.38552517,4.4577709 3.17086353,4.4577709 C1.95620188,4.4577709 0.971717523,3.4765909 0.971717523,2.26600619 C0.971717523,1.05542149 1.95620188,0.0742414861 3.17086353,0.0742414861 Z" id="Fill-62"></path>
                    <path d="M11.7683015,2.26600619 C11.7683015,1.05542149 12.7527859,0.0742414861 13.9674475,0.0742414861 C15.1821092,0.0742414861 16.1665935,1.05542149 16.1665935,2.26600619 C16.1665935,3.4765909 15.1821092,4.4577709 13.9674475,4.4577709 C12.7527859,4.4577709 11.7683015,3.4765909 11.7683015,2.26600619" id="Fill-64"></path>
                </g>
            </g>
        </g>
    </g>
</svg>