<?xml version="1.0" encoding="utf-8"?>
<!-- Generator: Adobe Illustrator 16.0.3, SVG Export Plug-In . SVG Version: 6.00 Build 0)  -->
<!DOCTYPE svg PUBLIC "-//W3C//DTD SVG 1.1//EN" "http://www.w3.org/Graphics/SVG/1.1/DTD/svg11.dtd">
<svg version="1.1" id="Layer_1" xmlns:sketch="http://www.bohemiancoding.com/sketch/ns"
	 xmlns="http://www.w3.org/2000/svg" xmlns:xlink="http://www.w3.org/1999/xlink" x="0px" y="0px" width="38px" height="38px"
	 viewBox="0 -11 38 38" enable-background="new 0 -11 38 38" xml:space="preserve">
<title>icon_nanodegree-expanded</title>
<desc>Created with sketchtool.</desc>
<g id="Style" sketch:type="MSPage">
	<g id="style" transform="translate(-101.000000, -1273.000000)" sketch:type="MSArtboardGroup">
		<g id="icons" transform="translate(63.000000, 1109.000000)" sketch:type="MSLayerGroup">
			<g id="product-icons" transform="translate(38.000000, 111.000000)" sketch:type="MSShapeGroup">
				<g id="_x32_px-icons" transform="translate(0.000000, 41.000000)">
					<g id="icon_nano-degree" transform="translate(0.000000, 1.000000)">
						<g id="icon_nanodegree-expanded">
							<rect id="bounds" fill="#D8D8D8" fill-opacity="0" width="38" height="38"/>
							<path id="Shape" fill="#525C65" d="M37.1,27.1L36.5,26l0,0l0,0l-8.4-15.1C27.8,10.4,27.2,10.1,26.7,10c0,0,0,0-0.101,0l0,0
								h-1.3l0,0H12.8l0,0h-1.3l0,0c0,0,0,0-0.1,0c-0.5,0-1.1,0.4-1.4,0.9L1.6,26l0,0l0,0L1,27.1C0.7,27.6,1,28,1.5,28h1.3l0,0h13.7
								c0.5,0,1.2-0.4,1.5-0.9l1-1.8l1,1.8c0.3,0.5,0.9,0.9,1.5,0.9h13.7l0,0h1.3C37.2,28,37.4,27.6,37.1,27.1L37.1,27.1z M24.2,12
								l-5.1,9.2L14,12H24.2L24.2,12z M16.4,26H4l7.8-13.9L18,23.3L16.4,26L16.4,26z M21.8,26l-1.5-2.7l6.2-11.2L34.3,26H21.8
								L21.8,26z"/>
						</g>
					</g>
				</g>
			</g>
		</g>
	</g>
</g>
</svg>
