<?xml version="1.0" encoding="utf-8"?>
<!-- Generator: Adobe Illustrator 16.0.3, SVG Export Plug-In . SVG Version: 6.00 Build 0)  -->
<!DOCTYPE svg PUBLIC "-//W3C//DTD SVG 1.1//EN" "http://www.w3.org/Graphics/SVG/1.1/DTD/svg11.dtd">
<svg version="1.1" id="Layer_1" xmlns:sketch="http://www.bohemiancoding.com/sketch/ns"
	 xmlns="http://www.w3.org/2000/svg" xmlns:xlink="http://www.w3.org/1999/xlink" x="0px" y="0px" width="24px" height="24px"
	 viewBox="0 0 24 24" enable-background="new 0 0 24 24" xml:space="preserve">
<title>icon_location</title>
<desc>Created with sketchtool.</desc>
<g id="Style" sketch:type="MSPage">
	<g id="style" transform="translate(-260.000000, -1522.000000)" sketch:type="MSArtboardGroup">
		<g id="icons" transform="translate(63.000000, 1109.000000)" sketch:type="MSLayerGroup">
			<g id="product-icons" transform="translate(38.000000, 111.000000)" sketch:type="MSShapeGroup">
				<g id="icon_location" transform="translate(159.000000, 302.000000)">
					<g id="icon_location-stroke" transform="translate(7.000000, 5.000000)">
						<path id="Oval-34" fill="none" stroke="#6F6F6F" d="M5,17.96c0,0,9.104-4.909,9.104-12.944c0-5.028-4.075-9.104-9.104-9.104
							c-5.028,0-9.104,4.077-9.104,9.104C-4.104,12.389,5,17.96,5,17.96z"/>
						<ellipse id="Oval-35" fill="none" stroke="#6F6F6F" cx="5" cy="5.016" rx="3.642" ry="3.642"/>
					</g>
					<g id="icon_location-expand">
						<path id="Shape" fill="#6F6F6F" d="M12.432,23.763c0.083-0.046,0.23-0.128,0.428-0.249c0.327-0.195,0.688-0.429,1.078-0.695
							c1.108-0.76,2.216-1.65,3.25-2.666c3.007-2.946,4.827-6.34,4.827-10.137C22.016,4.484,17.53,0,12,0
							C6.468,0,1.984,4.484,1.984,10.016c0,3.51,1.818,6.83,4.813,9.875c1.031,1.048,2.133,1.99,3.234,2.813
							c0.387,0.288,0.747,0.542,1.069,0.76c0.198,0.132,0.342,0.224,0.424,0.273l0.446,0.274L12.432,23.763L12.432,23.763z
							 M11.567,22.159l0.907,0.023c-0.261-0.16-0.735-0.476-1.352-0.938c-1.033-0.771-2.064-1.653-3.026-2.63
							c-2.694-2.739-4.291-5.655-4.291-8.599c0-4.526,3.668-8.194,8.194-8.194c4.525,0,8.195,3.668,8.195,8.194
							c0,3.233-1.594,6.201-4.279,8.835c-0.957,0.938-1.982,1.763-3.008,2.467C12.295,21.736,11.825,22.02,11.567,22.159
							L11.567,22.159z"/>
						<path id="Shape_1_" fill="#6F6F6F" d="M12,14.568c2.514,0,4.553-2.038,4.553-4.553S14.514,5.463,12,5.463
							c-2.515,0-4.552,2.038-4.552,4.552S9.485,14.568,12,14.568L12,14.568z M12,12.748c-1.509,0-2.731-1.224-2.731-2.732
							S10.491,7.284,12,7.284c1.508,0,2.731,1.223,2.731,2.731S13.508,12.748,12,12.748L12,12.748z"/>
					</g>
				</g>
			</g>
		</g>
	</g>
</g>
</svg>
